<mxfile host="65bd71144e">
    <diagram id="g9YnP-U1NJViCF15-zai" name="PÃ¡gina-1">
        <mxGraphModel dx="1332" dy="836" grid="1" gridSize="10" guides="1" tooltips="1" connect="1" arrows="1" fold="1" page="1" pageScale="1" pageWidth="850" pageHeight="1100" math="0" shadow="0">
            <root>
                <mxCell id="0"/>
                <mxCell id="1" parent="0"/>
                <mxCell id="35" value="Serie" style="swimlane;fontStyle=0;childLayout=stackLayout;horizontal=1;startSize=26;fillColor=none;horizontalStack=0;resizeParent=1;resizeParentMax=0;resizeLast=0;collapsible=1;marginBottom=0;" vertex="1" parent="1">
                    <mxGeometry x="100" y="30" width="190" height="160" as="geometry"/>
                </mxCell>
                <mxCell id="36" value="+ episodios : vector&lt;Episodio&gt;&#10;+ ID : str&#10;+ nombre : str&#10;+ genero : str" style="text;strokeColor=none;fillColor=none;align=left;verticalAlign=top;spacingLeft=4;spacingRight=4;overflow=hidden;rotatable=0;points=[[0,0.5],[1,0.5]];portConstraint=eastwest;" vertex="1" parent="35">
                    <mxGeometry y="26" width="190" height="134" as="geometry"/>
                </mxCell>
                <mxCell id="37" value="Episodio" style="swimlane;fontStyle=0;childLayout=stackLayout;horizontal=1;startSize=26;fillColor=none;horizontalStack=0;resizeParent=1;resizeParentMax=0;resizeLast=0;collapsible=1;marginBottom=0;" vertex="1" parent="1">
                    <mxGeometry x="125" y="253" width="140" height="150" as="geometry"/>
                </mxCell>
                <mxCell id="38" value="+ temporada : int&#10;+ num_episodio : int&#10;" style="text;strokeColor=none;fillColor=none;align=left;verticalAlign=top;spacingLeft=4;spacingRight=4;overflow=hidden;rotatable=0;points=[[0,0.5],[1,0.5]];portConstraint=eastwest;" vertex="1" parent="37">
                    <mxGeometry y="26" width="140" height="124" as="geometry"/>
                </mxCell>
                <mxCell id="39" value="" style="endArrow=diamondThin;endFill=1;endSize=24;html=1;exitX=0.5;exitY=0;exitDx=0;exitDy=0;" edge="1" parent="1" source="37">
                    <mxGeometry width="160" relative="1" as="geometry">
                        <mxPoint x="310" y="280" as="sourcePoint"/>
                        <mxPoint x="195" y="190" as="targetPoint"/>
                    </mxGeometry>
                </mxCell>
                <mxCell id="40" value="Plataforma" style="swimlane;fontStyle=0;childLayout=stackLayout;horizontal=1;startSize=26;fillColor=none;horizontalStack=0;resizeParent=1;resizeParentMax=0;resizeLast=0;collapsible=1;marginBottom=0;" vertex="1" parent="1">
                    <mxGeometry x="380" y="90" width="177" height="66" as="geometry"/>
                </mxCell>
                <mxCell id="41" value="+ series : vector&amp;lt;Serie&amp;gt;&lt;br&gt;+ peliculas : vector &amp;lt;Pelicula&amp;gt;" style="text;html=1;align=center;verticalAlign=middle;resizable=0;points=[];autosize=1;strokeColor=none;fillColor=none;" vertex="1" parent="40">
                    <mxGeometry y="26" width="177" height="40" as="geometry"/>
                </mxCell>
                <mxCell id="42" value="Pelicula" style="swimlane;fontStyle=0;childLayout=stackLayout;horizontal=1;startSize=26;fillColor=none;horizontalStack=0;resizeParent=1;resizeParentMax=0;resizeLast=0;collapsible=1;marginBottom=0;" vertex="1" parent="1">
                    <mxGeometry x="630" y="30" width="140" height="160" as="geometry"/>
                </mxCell>
                <mxCell id="43" value="+ genero : str&#10;" style="text;strokeColor=none;fillColor=none;align=left;verticalAlign=top;spacingLeft=4;spacingRight=4;overflow=hidden;rotatable=0;points=[[0,0.5],[1,0.5]];portConstraint=eastwest;" vertex="1" parent="42">
                    <mxGeometry y="26" width="140" height="134" as="geometry"/>
                </mxCell>
                <mxCell id="44" value="" style="endArrow=diamondThin;endFill=1;endSize=24;html=1;" edge="1" parent="1" source="36">
                    <mxGeometry width="160" relative="1" as="geometry">
                        <mxPoint x="205" y="280" as="sourcePoint"/>
                        <mxPoint x="380" y="120" as="targetPoint"/>
                    </mxGeometry>
                </mxCell>
                <mxCell id="45" value="" style="endArrow=diamondThin;endFill=1;endSize=24;html=1;exitX=0;exitY=0.5;exitDx=0;exitDy=0;entryX=1;entryY=0.5;entryDx=0;entryDy=0;" edge="1" parent="1" source="43" target="40">
                    <mxGeometry width="160" relative="1" as="geometry">
                        <mxPoint x="205" y="280" as="sourcePoint"/>
                        <mxPoint x="203.67000000000007" y="195.712" as="targetPoint"/>
                    </mxGeometry>
                </mxCell>
                <mxCell id="46" value="public" style="endArrow=block;endSize=16;endFill=0;html=1;entryX=1;entryY=0.5;entryDx=0;entryDy=0;" edge="1" parent="1" target="50">
                    <mxGeometry width="160" relative="1" as="geometry">
                        <mxPoint x="700" y="190" as="sourcePoint"/>
                        <mxPoint x="538.5" y="295" as="targetPoint"/>
                    </mxGeometry>
                </mxCell>
                <mxCell id="47" value="public" style="endArrow=block;endSize=16;endFill=0;html=1;entryX=0;entryY=0.5;entryDx=0;entryDy=0;exitX=1;exitY=0.5;exitDx=0;exitDy=0;" edge="1" parent="1" source="37" target="50">
                    <mxGeometry width="160" relative="1" as="geometry">
                        <mxPoint x="705.3799999999999" y="206.83400000000006" as="sourcePoint"/>
                        <mxPoint x="398.5" y="295" as="targetPoint"/>
                    </mxGeometry>
                </mxCell>
                <mxCell id="49" value="Video" style="swimlane;fontStyle=0;childLayout=stackLayout;horizontal=1;startSize=26;fillColor=none;horizontalStack=0;resizeParent=1;resizeParentMax=0;resizeLast=0;collapsible=1;marginBottom=0;" vertex="1" parent="1">
                    <mxGeometry x="398.5" y="240" width="140" height="150" as="geometry"/>
                </mxCell>
                <mxCell id="50" value="- ID : str&#10;- nombre : str&#10;- duracion : float&#10;- calificacion : float&#10;- fecha_estreno : str" style="text;strokeColor=none;fillColor=none;align=left;verticalAlign=top;spacingLeft=4;spacingRight=4;overflow=hidden;rotatable=0;points=[[0,0.5],[1,0.5]];portConstraint=eastwest;" vertex="1" parent="49">
                    <mxGeometry y="26" width="140" height="124" as="geometry"/>
                </mxCell>
            </root>
        </mxGraphModel>
    </diagram>
</mxfile>